<svg xmlns="http://www.w3.org/2000/svg" xmlns:xlink="http://www.w3.org/1999/xlink" width="2000" zoomAndPan="magnify" viewBox="0 0 1500 1499.999933" height="2000" preserveAspectRatio="xMidYMid meet" version="1.0"><defs><clipPath id="43d18ff232"><path d="M 573 130 L 1426.285156 130 L 1426.285156 1428 L 573 1428 Z M 573 130 " clip-rule="nonzero"/></clipPath></defs><path fill="#1a2d7a" d="M 222.457031 130.285156 L 486.503906 130.285156 L 947.519531 589.566406 L 919.28125 849.875 L 606.578125 538.386719 C 552.101562 484.171875 513.785156 416.398438 496.40625 343.9375 L 479.292969 272.429688 L 441.496094 284.769531 C 441.496094 284.769531 470.253906 405.191406 470.691406 406.929688 C 486.070312 476.527344 490.152344 547.078125 482.679688 615.890625 L 394.839844 1428.015625 L 81.179688 1428.015625 L 222.542969 130.371094 Z M 222.457031 130.285156 " fill-opacity="1" fill-rule="nonzero"/><g clip-path="url(#43d18ff232)"><path fill="#1a2d7a" d="M 1438.515625 130.285156 L 1298.105469 1427.929688 L 1034.058594 1427.929688 L 573.128906 968.648438 L 601.367188 708.335938 L 914.070312 1019.824219 C 968.546875 1074.128906 1006.863281 1141.8125 1024.242188 1214.1875 L 1041.359375 1285.695312 L 1079.238281 1273.359375 C 1079.238281 1273.359375 1050.480469 1152.933594 1050.046875 1151.195312 C 1034.667969 1081.601562 1030.582031 1011.050781 1038.054688 942.234375 L 1125.898438 130.109375 L 1438.6875 130.109375 Z M 1438.515625 130.285156 " fill-opacity="1" fill-rule="nonzero"/></g></svg>