<svg xmlns="http://www.w3.org/2000/svg" xmlns:xlink="http://www.w3.org/1999/xlink" width="2000" zoomAndPan="magnify" viewBox="0 0 1500 1499.999933" height="2000" preserveAspectRatio="xMidYMid meet" version="1.0"><path fill="#f8fafc" d="M 89.488281 941.839844 L 95.265625 941.839844 L 95.265625 925.863281 L 111.519531 925.863281 L 111.519531 920.910156 L 95.265625 920.910156 L 95.265625 908.503906 L 113.253906 908.503906 L 113.253906 903.550781 L 89.488281 903.550781 Z M 89.488281 941.839844 " fill-opacity="1" fill-rule="nonzero"/><path fill="#f8fafc" d="M 171.425781 905.40625 C 168.839844 903.828125 165.882812 903.039062 162.566406 903.039062 C 159.253906 903.039062 156.335938 903.828125 153.730469 905.40625 C 151.128906 906.984375 149.074219 909.234375 147.558594 912.171875 C 146.058594 915.113281 145.289062 918.621094 145.289062 922.726562 C 145.289062 926.828125 146.039062 930.28125 147.558594 933.21875 C 149.054688 936.15625 151.128906 938.40625 153.730469 939.984375 C 156.335938 941.5625 159.273438 942.351562 162.566406 942.351562 C 165.863281 942.351562 168.839844 941.5625 171.425781 939.984375 C 174.007812 938.40625 176.058594 936.15625 177.558594 933.21875 C 179.058594 930.300781 179.808594 926.789062 179.808594 922.707031 C 179.808594 918.621094 179.058594 915.089844 177.558594 912.152344 C 176.058594 909.214844 174.007812 906.964844 171.425781 905.386719 Z M 172.566406 930.574219 C 171.5625 932.726562 170.203125 934.34375 168.464844 935.429688 C 166.730469 936.53125 164.757812 937.066406 162.546875 937.066406 C 160.339844 937.066406 158.386719 936.511719 156.648438 935.429688 C 154.914062 934.34375 153.535156 932.707031 152.527344 930.574219 C 151.523438 928.445312 151.007812 925.820312 151.007812 922.707031 C 151.007812 919.589844 151.523438 916.945312 152.527344 914.796875 C 153.535156 912.644531 154.914062 911.027344 156.648438 909.921875 C 158.386719 908.820312 160.359375 908.285156 162.546875 908.285156 C 164.738281 908.285156 166.730469 908.839844 168.464844 909.921875 C 170.203125 911.027344 171.5625 912.644531 172.566406 914.796875 C 173.574219 916.945312 174.066406 919.589844 174.066406 922.707031 C 174.066406 925.820312 173.574219 928.425781 172.566406 930.574219 Z M 172.566406 930.574219 " fill-opacity="1" fill-rule="nonzero"/><path fill="#f8fafc" d="M 237.777344 928.269531 C 237.777344 930.003906 237.402344 931.542969 236.632812 932.882812 C 235.867188 934.226562 234.78125 935.289062 233.378906 936.058594 C 231.980469 936.828125 230.304688 937.222656 228.351562 937.222656 C 226.398438 937.222656 224.742188 936.828125 223.320312 936.058594 C 221.898438 935.289062 220.816406 934.226562 220.066406 932.882812 C 219.296875 931.542969 218.921875 930.003906 218.921875 928.269531 L 218.921875 903.550781 L 213.140625 903.550781 L 213.140625 928.742188 C 213.140625 931.402344 213.773438 933.789062 215.035156 935.84375 C 216.296875 937.914062 218.074219 939.53125 220.363281 940.695312 C 222.648438 941.878906 225.3125 942.449219 228.371094 942.449219 C 231.425781 942.449219 234.109375 941.859375 236.378906 940.695312 C 238.648438 939.53125 240.421875 937.894531 241.683594 935.84375 C 242.945312 933.769531 243.578125 931.402344 243.578125 928.742188 L 243.578125 903.550781 L 237.796875 903.550781 L 237.796875 928.269531 Z M 237.777344 928.269531 " fill-opacity="1" fill-rule="nonzero"/><path fill="#f8fafc" d="M 303.324219 931.660156 L 302.96875 931.660156 L 283.5 903.550781 L 278.15625 903.550781 L 278.15625 941.839844 L 283.933594 941.839844 L 283.933594 913.769531 L 284.308594 913.769531 L 303.71875 941.839844 L 309.125 941.839844 L 309.125 903.550781 L 303.324219 903.550781 Z M 303.324219 931.660156 " fill-opacity="1" fill-rule="nonzero"/><path fill="#f8fafc" d="M 366.148438 905.839844 C 363.464844 904.320312 360.230469 903.550781 356.484375 903.550781 L 343.679688 903.550781 L 343.679688 941.839844 L 356.089844 941.839844 C 359.972656 941.839844 363.289062 941.070312 366.03125 939.53125 C 368.769531 937.992188 370.863281 935.78125 372.320312 932.921875 C 373.761719 930.0625 374.492188 926.628906 374.492188 922.644531 C 374.492188 918.660156 373.78125 915.25 372.339844 912.410156 C 370.902344 909.550781 368.832031 907.359375 366.148438 905.839844 Z M 367.390625 930.339844 C 366.425781 932.449219 364.984375 934.066406 363.050781 935.152344 C 361.117188 936.238281 358.691406 936.789062 355.773438 936.789062 L 349.480469 936.789062 L 349.480469 908.621094 L 356.128906 908.621094 C 358.929688 908.621094 361.257812 909.175781 363.148438 910.257812 C 365.042969 911.34375 366.445312 912.941406 367.410156 915.03125 C 368.355469 917.125 368.832031 919.667969 368.832031 922.664062 C 368.832031 925.664062 368.355469 928.25 367.390625 930.359375 Z M 367.390625 930.339844 " fill-opacity="1" fill-rule="nonzero"/><path fill="#f8fafc" d="M 416.917969 903.550781 L 403.152344 941.839844 L 409.285156 941.839844 L 412.777344 931.679688 L 427.710938 931.679688 L 431.21875 941.839844 L 437.335938 941.839844 L 423.585938 903.550781 L 416.898438 903.550781 Z M 414.453125 926.847656 L 420.074219 910.496094 L 420.390625 910.496094 L 426.050781 926.847656 Z M 414.453125 926.847656 " fill-opacity="1" fill-rule="nonzero"/><path fill="#f8fafc" d="M 462.582031 908.503906 L 474.554688 908.503906 L 474.554688 941.839844 L 480.316406 941.839844 L 480.316406 908.503906 L 492.230469 908.503906 L 492.230469 903.550781 L 462.582031 903.550781 Z M 462.582031 908.503906 " fill-opacity="1" fill-rule="nonzero"/><path fill="#f8fafc" d="M 524.914062 903.550781 L 530.691406 903.550781 L 530.691406 941.839844 L 524.914062 941.839844 Z M 524.914062 903.550781 " fill-opacity="1" fill-rule="nonzero"/><path fill="#f8fafc" d="M 590.183594 905.40625 C 587.597656 903.828125 584.640625 903.039062 581.328125 903.039062 C 578.011719 903.039062 575.09375 903.828125 572.488281 905.40625 C 569.886719 906.984375 567.835938 909.234375 566.316406 912.171875 C 564.816406 915.113281 564.046875 918.621094 564.046875 922.726562 C 564.046875 926.828125 564.796875 930.28125 566.316406 933.21875 C 567.816406 936.15625 569.886719 938.40625 572.488281 939.984375 C 575.09375 941.5625 578.03125 942.351562 581.328125 942.351562 C 584.621094 942.351562 587.597656 941.5625 590.183594 939.984375 C 592.765625 938.40625 594.820312 936.15625 596.316406 933.21875 C 597.816406 930.300781 598.566406 926.789062 598.566406 922.707031 C 598.566406 918.621094 597.816406 915.089844 596.316406 912.152344 C 594.820312 909.214844 592.765625 906.964844 590.183594 905.386719 Z M 591.328125 930.574219 C 590.320312 932.726562 588.960938 934.34375 587.222656 935.429688 C 585.488281 936.53125 583.515625 937.066406 581.308594 937.066406 C 579.097656 937.066406 577.144531 936.511719 575.410156 935.429688 C 573.671875 934.34375 572.292969 932.707031 571.285156 930.574219 C 570.28125 928.445312 569.769531 925.820312 569.769531 922.707031 C 569.769531 919.589844 570.28125 916.945312 571.285156 914.796875 C 572.292969 912.644531 573.671875 911.027344 575.410156 909.921875 C 577.144531 908.820312 579.117188 908.285156 581.308594 908.285156 C 583.496094 908.285156 585.488281 908.839844 587.222656 909.921875 C 588.960938 911.027344 590.320312 912.644531 591.328125 914.796875 C 592.332031 916.945312 592.828125 919.589844 592.828125 922.707031 C 592.828125 925.820312 592.332031 928.425781 591.328125 930.574219 Z M 591.328125 930.574219 " fill-opacity="1" fill-rule="nonzero"/><path fill="#f8fafc" d="M 657.089844 931.660156 L 656.734375 931.660156 L 637.246094 903.550781 L 631.902344 903.550781 L 631.902344 941.839844 L 637.699219 941.839844 L 637.699219 913.769531 L 638.074219 913.769531 L 657.484375 941.839844 L 662.871094 941.839844 L 662.871094 903.550781 L 657.089844 903.550781 Z M 657.089844 931.660156 " fill-opacity="1" fill-rule="nonzero"/><path fill="#f8fafc" d="M 737.585938 941.839844 L 743.367188 941.839844 L 743.367188 925.863281 L 759.640625 925.863281 L 759.640625 920.910156 L 743.367188 920.910156 L 743.367188 908.503906 L 761.355469 908.503906 L 761.355469 903.550781 L 737.585938 903.550781 Z M 737.585938 941.839844 " fill-opacity="1" fill-rule="nonzero"/><path fill="#f8fafc" d="M 819.523438 905.40625 C 816.941406 903.828125 813.980469 903.039062 810.667969 903.039062 C 807.355469 903.039062 804.433594 903.828125 801.832031 905.40625 C 799.226562 906.984375 797.175781 909.234375 795.65625 912.171875 C 794.15625 915.113281 793.390625 918.621094 793.390625 922.726562 C 793.390625 926.828125 794.136719 930.28125 795.65625 933.21875 C 797.15625 936.15625 799.226562 938.40625 801.832031 939.984375 C 804.433594 941.5625 807.375 942.351562 810.667969 942.351562 C 813.960938 942.351562 816.941406 941.5625 819.523438 939.984375 C 822.109375 938.40625 824.160156 936.15625 825.660156 933.21875 C 827.15625 930.300781 827.90625 926.789062 827.90625 922.707031 C 827.90625 918.621094 827.15625 915.089844 825.660156 912.152344 C 824.160156 909.214844 822.109375 906.964844 819.523438 905.386719 Z M 820.667969 930.574219 C 819.664062 932.726562 818.300781 934.34375 816.566406 935.429688 C 814.828125 936.53125 812.855469 937.066406 810.648438 937.066406 C 808.4375 937.066406 806.484375 936.511719 804.75 935.429688 C 803.015625 934.34375 801.632812 932.707031 800.628906 930.574219 C 799.621094 928.425781 799.109375 925.820312 799.109375 922.707031 C 799.109375 919.589844 799.621094 916.945312 800.628906 914.796875 C 801.632812 912.644531 803.015625 911.027344 804.75 909.921875 C 806.484375 908.820312 808.457031 908.285156 810.648438 908.285156 C 812.835938 908.285156 814.828125 908.839844 816.566406 909.921875 C 818.300781 911.027344 819.664062 912.644531 820.667969 914.796875 C 821.675781 916.945312 822.167969 919.589844 822.167969 922.707031 C 822.167969 925.820312 821.675781 928.425781 820.667969 930.574219 Z M 820.667969 930.574219 " fill-opacity="1" fill-rule="nonzero"/><path fill="#f8fafc" d="M 882.289062 925.882812 C 884.242188 924.914062 885.722656 923.535156 886.6875 921.738281 C 887.652344 919.964844 888.148438 917.894531 888.148438 915.566406 C 888.148438 913.238281 887.652344 911.105469 886.6875 909.3125 C 885.699219 907.496094 884.242188 906.097656 882.289062 905.070312 C 880.335938 904.046875 877.871094 903.53125 874.910156 903.53125 L 861.242188 903.53125 L 861.242188 941.820312 L 867.023438 941.820312 L 867.023438 927.320312 L 874.851562 927.320312 C 874.992188 927.320312 875.109375 927.320312 875.246094 927.320312 L 883.019531 941.839844 L 889.585938 941.839844 L 881.125 926.355469 C 881.519531 926.214844 881.914062 926.058594 882.269531 925.882812 Z M 867.042969 908.503906 L 874.320312 908.503906 C 876.214844 908.503906 877.75 908.800781 878.933594 909.371094 C 880.117188 909.945312 880.96875 910.753906 881.519531 911.816406 C 882.070312 912.863281 882.347656 914.125 882.347656 915.585938 C 882.347656 917.042969 882.070312 918.246094 881.539062 919.253906 C 881.007812 920.257812 880.136719 921.046875 878.976562 921.601562 C 877.8125 922.152344 876.273438 922.429688 874.359375 922.429688 L 867.0625 922.429688 L 867.0625 908.523438 Z M 867.042969 908.503906 " fill-opacity="1" fill-rule="nonzero"/><path fill="#f8fafc" d="M 978.605469 927.023438 L 988.015625 927.023438 C 987.972656 929.015625 987.558594 930.753906 986.75 932.210938 C 985.902344 933.75 984.699219 934.953125 983.160156 935.804688 C 981.621094 936.652344 979.808594 937.066406 977.738281 937.066406 C 975.488281 937.066406 973.496094 936.511719 971.722656 935.410156 C 969.945312 934.304688 968.566406 932.6875 967.558594 930.535156 C 966.554688 928.386719 966.039062 925.78125 966.039062 922.667969 C 966.039062 919.550781 966.554688 916.945312 967.558594 914.796875 C 968.566406 912.644531 969.945312 911.027344 971.664062 909.925781 C 973.398438 908.820312 975.332031 908.265625 977.5 908.265625 C 978.78125 908.265625 979.945312 908.425781 981.011719 908.761719 C 982.058594 909.09375 983.003906 909.589844 983.851562 910.21875 C 984.679688 910.871094 985.410156 911.640625 986.003906 912.527344 C 986.59375 913.433594 987.085938 914.441406 987.441406 915.605469 L 993.359375 915.605469 C 993.042969 913.730469 992.414062 912.035156 991.503906 910.496094 C 990.597656 908.957031 989.433594 907.636719 988.035156 906.492188 C 986.632812 905.347656 985.035156 904.5 983.261719 903.886719 C 981.464844 903.277344 979.550781 902.980469 977.5 902.980469 C 974.1875 902.980469 971.25 903.769531 968.664062 905.367188 C 966.082031 906.945312 964.046875 909.214844 962.570312 912.152344 C 961.089844 915.089844 960.339844 918.601562 960.339844 922.664062 C 960.339844 926.730469 961.070312 930.179688 962.53125 933.121094 C 963.988281 936.058594 966.039062 938.328125 968.644531 939.925781 C 971.246094 941.523438 974.285156 942.3125 977.757812 942.3125 C 980.835938 942.3125 983.597656 941.660156 986.003906 940.378906 C 988.410156 939.097656 990.300781 937.28125 991.664062 934.933594 C 993.023438 932.585938 993.714844 929.804688 993.714844 926.589844 L 993.714844 922.230469 L 978.664062 922.230469 L 978.664062 927.003906 Z M 978.605469 927.023438 " fill-opacity="1" fill-rule="nonzero"/><path fill="#f8fafc" d="M 1048.195312 925.882812 C 1050.148438 924.914062 1051.625 923.535156 1052.59375 921.738281 C 1053.558594 919.964844 1054.054688 917.894531 1054.054688 915.566406 C 1054.054688 913.238281 1053.558594 911.105469 1052.59375 909.3125 C 1051.605469 907.496094 1050.148438 906.097656 1048.195312 905.070312 C 1046.242188 904.046875 1043.777344 903.53125 1040.816406 903.53125 L 1027.148438 903.53125 L 1027.148438 941.820312 L 1032.925781 941.820312 L 1032.925781 927.320312 L 1040.757812 927.320312 C 1040.894531 927.320312 1041.015625 927.320312 1041.152344 927.320312 L 1048.925781 941.839844 L 1055.492188 941.839844 L 1047.03125 926.355469 C 1047.425781 926.214844 1047.820312 926.058594 1048.175781 925.882812 Z M 1032.945312 908.503906 L 1040.226562 908.503906 C 1042.121094 908.503906 1043.65625 908.800781 1044.839844 909.371094 C 1046.023438 909.945312 1046.871094 910.753906 1047.425781 911.816406 C 1047.976562 912.863281 1048.253906 914.125 1048.253906 915.585938 C 1048.253906 917.042969 1047.976562 918.246094 1047.445312 919.253906 C 1046.914062 920.257812 1046.042969 921.046875 1044.878906 921.601562 C 1043.71875 922.152344 1042.179688 922.429688 1040.265625 922.429688 L 1032.96875 922.429688 L 1032.96875 908.523438 Z M 1032.945312 908.503906 " fill-opacity="1" fill-rule="nonzero"/><path fill="#f8fafc" d="M 1112.222656 905.40625 C 1109.636719 903.828125 1106.679688 903.039062 1103.363281 903.039062 C 1100.050781 903.039062 1097.132812 903.828125 1094.527344 905.40625 C 1091.925781 906.984375 1089.875 909.234375 1088.355469 912.171875 C 1086.855469 915.113281 1086.085938 918.621094 1086.085938 922.726562 C 1086.085938 926.828125 1086.835938 930.28125 1088.355469 933.21875 C 1089.851562 936.15625 1091.925781 938.40625 1094.527344 939.984375 C 1097.132812 941.5625 1100.070312 942.351562 1103.363281 942.351562 C 1106.660156 942.351562 1109.636719 941.5625 1112.222656 939.984375 C 1114.804688 938.40625 1116.855469 936.15625 1118.355469 933.21875 C 1119.855469 930.300781 1120.605469 926.789062 1120.605469 922.707031 C 1120.605469 918.621094 1119.855469 915.089844 1118.355469 912.152344 C 1116.855469 909.214844 1114.804688 906.964844 1112.222656 905.386719 Z M 1113.367188 930.574219 C 1112.359375 932.726562 1111 934.34375 1109.261719 935.429688 C 1107.527344 936.53125 1105.554688 937.066406 1103.34375 937.066406 C 1101.136719 937.066406 1099.183594 936.511719 1097.449219 935.429688 C 1095.710938 934.324219 1094.332031 932.707031 1093.324219 930.574219 C 1092.320312 928.445312 1091.804688 925.820312 1091.804688 922.707031 C 1091.804688 919.589844 1092.320312 916.945312 1093.324219 914.796875 C 1094.332031 912.644531 1095.710938 911.027344 1097.449219 909.921875 C 1099.183594 908.820312 1101.15625 908.285156 1103.34375 908.285156 C 1105.535156 908.285156 1107.527344 908.839844 1109.261719 909.921875 C 1111 911.027344 1112.359375 912.644531 1113.367188 914.796875 C 1114.371094 916.945312 1114.863281 919.589844 1114.863281 922.707031 C 1114.863281 925.820312 1114.371094 928.425781 1113.367188 930.574219 Z M 1113.367188 930.574219 " fill-opacity="1" fill-rule="nonzero"/><path fill="#f8fafc" d="M 1186.230469 933.21875 L 1185.855469 933.21875 L 1178.121094 903.550781 L 1172.105469 903.550781 L 1164.355469 933.199219 L 1163.980469 933.199219 L 1156.542969 903.550781 L 1150.46875 903.550781 L 1161.058594 941.839844 L 1166.917969 941.839844 L 1174.964844 913.179688 L 1175.261719 913.179688 L 1183.308594 941.839844 L 1189.109375 941.839844 L 1199.78125 903.550781 L 1193.664062 903.550781 Z M 1186.230469 933.21875 " fill-opacity="1" fill-rule="nonzero"/><path fill="#f8fafc" d="M 1229.445312 908.503906 L 1241.4375 908.503906 L 1241.4375 941.839844 L 1247.179688 941.839844 L 1247.179688 908.503906 L 1259.113281 908.503906 L 1259.113281 903.550781 L 1229.445312 903.550781 Z M 1229.445312 908.503906 " fill-opacity="1" fill-rule="nonzero"/><path fill="#f8fafc" d="M 1316.628906 903.550781 L 1316.628906 920.199219 L 1297.574219 920.199219 L 1297.574219 903.550781 L 1291.796875 903.550781 L 1291.796875 941.839844 L 1297.574219 941.839844 L 1297.574219 925.152344 L 1316.628906 925.152344 L 1316.628906 941.839844 L 1322.410156 941.839844 L 1322.410156 903.550781 Z M 1316.628906 903.550781 " fill-opacity="1" fill-rule="nonzero"/><path fill="#f8fafc" d="M 121.558594 564.640625 L 181.503906 564.640625 L 286.164062 668.90625 L 279.753906 728 L 208.761719 657.289062 C 196.394531 644.980469 187.695312 629.59375 183.753906 613.144531 L 179.867188 596.910156 L 171.285156 599.710938 C 171.285156 599.710938 177.816406 627.050781 177.914062 627.445312 C 181.40625 643.242188 182.332031 659.261719 180.636719 674.882812 L 160.695312 859.25 L 89.488281 859.25 L 121.578125 564.660156 Z M 121.558594 564.640625 " fill-opacity="1" fill-rule="nonzero"/><path fill="#f8fafc" d="M 397.628906 564.640625 L 365.753906 859.230469 L 305.808594 859.230469 L 201.167969 754.964844 L 207.578125 695.871094 L 278.570312 766.582031 C 290.9375 778.910156 299.636719 794.277344 303.582031 810.707031 L 307.464844 826.941406 L 316.066406 824.140625 C 316.066406 824.140625 309.539062 796.800781 309.4375 796.40625 C 305.949219 780.609375 305.019531 764.589844 306.71875 748.96875 L 326.660156 564.601562 L 397.667969 564.601562 Z M 397.628906 564.640625 " fill-opacity="1" fill-rule="nonzero"/><path fill="#f8fafc" d="M 397.433594 742.972656 C 404.828125 674.488281 465.148438 622.550781 542.824219 622.550781 C 620.5 622.550781 666.378906 678.628906 659.0625 742.046875 C 658.570312 746.640625 657.367188 757.667969 656.457031 761.808594 L 463.015625 761.355469 C 460.292969 786.644531 479.84375 818.339844 527.183594 818.339844 C 557.972656 818.339844 578.269531 805.007812 584.109375 793.527344 L 648.449219 793.527344 C 638.960938 817.433594 599.652344 866.609375 527.476562 866.609375 C 434.179688 866.609375 390.035156 811.457031 397.453125 742.972656 Z M 595.3125 723.660156 C 598.742188 691.945312 577.972656 667.128906 539.371094 667.128906 C 500.769531 667.128906 470.195312 694.707031 467.082031 723.660156 Z M 595.3125 723.660156 " fill-opacity="1" fill-rule="nonzero"/><path fill="#f8fafc" d="M 675.492188 742.972656 C 682.890625 674.488281 743.207031 622.550781 820.886719 622.550781 C 898.5625 622.550781 944.441406 678.628906 937.125 742.046875 C 936.628906 746.640625 935.425781 757.667969 934.519531 761.808594 L 741.078125 761.355469 C 738.355469 786.644531 757.902344 818.339844 805.242188 818.339844 C 836.035156 818.339844 856.332031 805.007812 862.167969 793.527344 L 926.511719 793.527344 C 917.023438 817.433594 877.710938 866.609375 805.539062 866.609375 C 712.242188 866.609375 668.097656 811.457031 675.511719 742.972656 Z M 873.394531 723.660156 C 876.824219 691.945312 856.054688 667.128906 817.453125 667.128906 C 778.851562 667.128906 748.277344 694.707031 745.160156 723.660156 Z M 873.394531 723.660156 " fill-opacity="1" fill-rule="nonzero"/><path fill="#f8fafc" d="M 1114.253906 622.550781 C 1161.140625 622.550781 1194.574219 649.199219 1188.890625 701.609375 L 1171.851562 859.25 L 1115.316406 859.25 L 1127.980469 742.046875 C 1132.753906 697.921875 1118.808594 678.15625 1085.257812 678.15625 C 1048.492188 678.15625 1015.097656 697.921875 1010.324219 742.046875 L 997.660156 859.25 L 941.582031 859.25 L 966.433594 629.457031 L 1022.511719 629.457031 L 1022.117188 633.125 C 1020.125 651.507812 1008.546875 673.5625 999.769531 691.035156 L 1008.980469 695.179688 C 1017.757812 677.722656 1026.890625 652.890625 1042.828125 641.410156 C 1063.777344 626.242188 1084.390625 622.570312 1114.273438 622.570312 Z M 1114.253906 622.550781 " fill-opacity="1" fill-rule="nonzero"/><path fill="#f8fafc" d="M 1440.246094 668.648438 L 1417.070312 617.089844 L 1343.238281 654.820312 L 1366.121094 658.078125 L 1319.054688 764.550781 C 1310.417969 780.628906 1308.917969 803.152344 1306.964844 821.082031 L 1296.394531 821.082031 C 1298.265625 803.605469 1301.226562 780.628906 1296.058594 764.550781 L 1252.308594 629.4375 L 1191.179688 629.4375 L 1269.289062 859.230469 L 1332.074219 859.230469 L 1423.007812 666.203125 L 1440.226562 668.648438 Z M 1440.246094 668.648438 " fill-opacity="1" fill-rule="nonzero"/></svg>